<?xml version="1.0" encoding="utf-8"?><svg xmlns="http://www.w3.org/2000/svg" xmlns:xlink="http://www.w3.org/1999/xlink"><symbol viewBox="0 0 344.96 344.96" id="check" xmlns="http://www.w3.org/2000/svg"><g data-name="Слой 2"><path d="M321.85 86.24l-40-23.11-23.1-40H212.5L172.48 0l-40 23.11H86.24l-23.11 40-40 23.1v46.21L0 172.48l23.11 40v46.21l40 23.11 23.11 40h46.21l40 23.1 40-23.11h46.21l23.11-40 40-23.11V212.5l23.11-40-23.11-40V86.24zM156.91 243.07a16.79 16.79 0 01-23.34 0l-50.45-50.44a16.19 16.19 0 010-22.89l13.35-13.35a16.19 16.19 0 0122.89 0l25.87 25.87 80.34-80.35a16.19 16.19 0 0122.89 0l13.35 13.35a16.19 16.19 0 010 22.89z" data-name="Capa 1"/></g></symbol><symbol class="bsvg-inline--fa bfa-facebook-f bfa-w-10" viewBox="0 0 320 512" id="facebook" xmlns="http://www.w3.org/2000/svg"><path d="M279.14 288l14.22-92.66h-88.91v-60.13c0-25.35 12.42-50.06 52.24-50.06h40.42V6.26S260.43 0 225.36 0c-73.22 0-121.08 44.38-121.08 124.72v70.62H22.89V288h81.39v224h100.17V288z"/></symbol><symbol class="csvg-inline--fa cfa-instagram cfa-w-14" viewBox="0 0 448 512" id="instagram" xmlns="http://www.w3.org/2000/svg"><path d="M224.1 141c-63.6 0-114.9 51.3-114.9 114.9s51.3 114.9 114.9 114.9S339 319.5 339 255.9 287.7 141 224.1 141zm0 189.6c-41.1 0-74.7-33.5-74.7-74.7s33.5-74.7 74.7-74.7 74.7 33.5 74.7 74.7-33.6 74.7-74.7 74.7zm146.4-194.3c0 14.9-12 26.8-26.8 26.8-14.9 0-26.8-12-26.8-26.8s12-26.8 26.8-26.8 26.8 12 26.8 26.8zm76.1 27.2c-1.7-35.9-9.9-67.7-36.2-93.9-26.2-26.2-58-34.4-93.9-36.2-37-2.1-147.9-2.1-184.9 0-35.8 1.7-67.6 9.9-93.9 36.1s-34.4 58-36.2 93.9c-2.1 37-2.1 147.9 0 184.9 1.7 35.9 9.9 67.7 36.2 93.9s58 34.4 93.9 36.2c37 2.1 147.9 2.1 184.9 0 35.9-1.7 67.7-9.9 93.9-36.2 26.2-26.2 34.4-58 36.2-93.9 2.1-37 2.1-147.8 0-184.8zM398.8 388c-7.8 19.6-22.9 34.7-42.6 42.6-29.5 11.7-99.5 9-132.1 9s-102.7 2.6-132.1-9c-19.6-7.8-34.7-22.9-42.6-42.6-11.7-29.5-9-99.5-9-132.1s-2.6-102.7 9-132.1c7.8-19.6 22.9-34.7 42.6-42.6 29.5-11.7 99.5-9 132.1-9s102.7-2.6 132.1 9c19.6 7.8 34.7 22.9 42.6 42.6 11.7 29.5 9 99.5 9 132.1s2.7 102.7-9 132.1z"/></symbol><symbol viewBox="0 0 17 20" id="tel" xmlns="http://www.w3.org/2000/svg"><path d="M16.839 16.603a.494.494 0 01-.962-.228c.275-1.15.131-2.159-.386-2.7-.344-.36-.834-.482-1.457-.366-1.236.233-2.024 1.298-2.937 2.531-.764 1.033-1.63 2.203-2.901 2.987C6.96 19.59 5.549 20 4.183 20c-.129 0-.257-.003-.385-.011-1.485-.085-2.71-.676-3.36-1.62-.82-1.192-.349-2.433.29-3.28l-.5-.666a1.152 1.152 0 01.22-1.599l3.227-2.48a1.16 1.16 0 011.627.222l1.19 1.586c.949-.426 2.034-1.15 3.21-2.34 1.19-1.203 1.903-2.308 2.321-3.261L10.434 5.33a1.152 1.152 0 01-.219-1.6L12.67.46a1.16 1.16 0 01.924-.46c.256 0 .5.082.703.239l1.857 1.427.006.006a.591.591 0 01.04.037c.012.012.024.023.034.035l.019.027a.598.598 0 01.036.057l.007.015a.501.501 0 01.03.08l.001.001c.047.173 1.084 4.284-4.54 9.975-4.042 4.09-7.29 4.7-8.867 4.7-.615 0-.968-.093-1.007-.104H1.91a.55.55 0 01-.075-.03l-.02-.01a.522.522 0 01-.053-.033l-.032-.023-.032-.032-.038-.04-.007-.009-.3-.4c-.334.517-.564 1.215-.098 1.893.944 1.37 3.89 1.738 6.422.177 1.109-.683 1.88-1.726 2.626-2.733.993-1.342 1.93-2.61 3.55-2.915.945-.177 1.781.055 2.355.655.749.784.985 2.133.632 3.608z"/></symbol><symbol viewBox="0 0 18 23" id="user" xmlns="http://www.w3.org/2000/svg"><path d="M9.056 13.77c-2.012 0-3.713-1.738-4.574-3.846-.638-.101-1.244-.599-1.34-1.767-.092-1.117.277-1.573.747-1.754.077-2.048.572-3.313 1.3-4.09.453-.594 1.214-1.169 1.703-1.469 3.847-2.359 5.817 1.003 5.817 1.003s2.639.767 1.682 4.685c.344.24.578.711.503 1.625-.091 1.118-.65 1.622-1.257 1.752-.86 2.115-2.563 3.86-4.58 3.86zm4.2-6.79v-.084c-.276-.975-.815-2.29-1.855-3.331-1.095 1.19-3.108 2.561-6.511 2.412-.022.31-.034.644-.034 1.004 0 2.63 1.874 5.806 4.2 5.806 2.327 0 4.201-3.176 4.2-5.807zM8.36 17.58l-.945 5.416h-6.2c-.66 0-1.213-.499-1.213-1.122v-3.171c0-2.415 1.748-4.52 4.228-5.106l1.464-.345L8.1 15.255c.026.022.053.043.08.062a.655.655 0 00-.187.325l-.27 1.12c-.1.417.212.811.636.817zM18 18.702v3.171c0 .624-.503 1.122-1.164 1.122h-6.2l-.944-5.416a.66.66 0 00.635-.817l-.27-1.121a.654.654 0 00-.188-.325l.08-.062 2.404-2.003 1.444.345c2.48.586 4.204 2.69 4.203 5.106z"/></symbol><symbol class="fsvg-inline--fa ffa-youtube ffa-w-18" viewBox="0 0 576 512" id="youtube" xmlns="http://www.w3.org/2000/svg"><path d="M549.655 124.083c-6.281-23.65-24.787-42.276-48.284-48.597C458.781 64 288 64 288 64S117.22 64 74.629 75.486c-23.497 6.322-42.003 24.947-48.284 48.597-11.412 42.867-11.412 132.305-11.412 132.305s0 89.438 11.412 132.305c6.281 23.65 24.787 41.5 48.284 47.821C117.22 448 288 448 288 448s170.78 0 213.371-11.486c23.497-6.321 42.003-24.171 48.284-47.821 11.412-42.867 11.412-132.305 11.412-132.305s0-89.438-11.412-132.305zm-317.51 213.508V175.185l142.739 81.205-142.739 81.201z"/></symbol></svg>