<svg xmlns="http://www.w3.org/2000/svg" width="26" height="31" viewBox="0 0 26 31"><g><g><path fill="#b1061b" d="M25.753 25.735a.754.754 0 0 1-.91.566.764.764 0 0 1-.56-.92c.42-1.782.2-3.346-.59-4.183-.527-.559-1.277-.749-2.229-.568-1.891.36-3.097 2.01-4.492 3.923-1.169 1.6-2.494 3.414-4.438 4.63-1.89 1.18-4.048 1.816-6.136 1.816-.197 0-.394-.005-.589-.017-2.272-.132-4.145-1.047-5.138-2.51-1.255-1.849-.535-3.772.443-5.085L.35 22.355a1.802 1.802 0 0 1 .335-2.478l4.936-3.845c.311-.242.683-.37 1.075-.37.553 0 1.081.267 1.413.714l1.82 2.459c1.45-.661 3.11-1.781 4.91-3.627 1.818-1.865 2.909-3.578 3.55-5.056l-2.43-1.892a1.801 1.801 0 0 1-.336-2.479L19.376.713C19.707.266 20.236 0 20.79 0c.392 0 .764.129 1.075.37l2.84 2.213.01.01a.898.898 0 0 1 .062.057c.017.019.035.036.05.055.011.013.02.027.03.041.02.03.04.059.056.09l.01.023c.018.04.034.08.046.123l.001.002c.072.267 1.657 6.64-6.944 15.461-6.181 6.339-11.15 7.286-13.56 7.286-.942 0-1.482-.145-1.54-.162l-.005-.001a.726.726 0 0 1-.115-.046l-.032-.015a.732.732 0 0 1-.08-.053c-.016-.011-.033-.022-.048-.035-.018-.015-.034-.032-.05-.05a.683.683 0 0 1-.057-.062l-.012-.012-.46-.622c-.51.804-.861 1.885-.149 2.934 1.444 2.125 5.951 2.696 9.822.277 1.696-1.06 2.875-2.676 4.016-4.238 1.519-2.08 2.954-4.045 5.429-4.517 1.446-.275 2.725.085 3.602 1.014 1.146 1.216 1.507 3.306.967 5.593z"/></g></g></svg>