<svg xmlns="http://www.w3.org/2000/svg" xmlns:xlink="http://www.w3.org/1999/xlink" viewBox="0 0 102.5 102.5"><defs><style>.cls-1{fill:none;}.cls-2{clip-path:url(#clip-path);}.cls-3{fill:#414141;}</style><clipPath id="clip-path" transform="translate(0 0)"><rect class="cls-1" width="102.5" height="102.5"/></clipPath></defs><title>work-4</title><g id="Слой_2" data-name="Слой 2"><g id="Слой_1-2" data-name="Слой 1"><g class="cls-2"><path class="cls-3" d="M101.44,20.92,82.5,18V11.25A1.25,1.25,0,0,0,81.25,10H63.35L62.19,1.09A1.25,1.25,0,0,0,60.83,0L1.13,5.76A1.24,1.24,0,0,0,0,7.12L7.65,86.77A1.25,1.25,0,0,0,9,87.89l11-1.11v4.47a1.25,1.25,0,0,0,1.25,1.25h4.9l63,10a1.26,1.26,0,0,0,1.44-1l11.95-79.1a1.25,1.25,0,0,0-1-1.42M10,85.28,2.62,8.13,59.87,2.61l1,7.39H21.25A1.25,1.25,0,0,0,20,11.25v73ZM22.5,12.5H80V80H71.25A1.25,1.25,0,0,0,70,81.25V90H22.5Zm55.73,70L72.5,88.23V82.5Zm10,17.32L42.11,92.5H71.25a1.22,1.22,0,0,0,.88-.37l10-10a1.22,1.22,0,0,0,.37-.88V20.51L99.83,23.2Z" transform="translate(0 0)"/><path class="cls-3" d="M71.25,37.5A1.25,1.25,0,0,0,70,38.75V45H66.25a1.25,1.25,0,0,0,0,2.5H70v6.25a1.25,1.25,0,0,0,2.5,0v-15a1.25,1.25,0,0,0-1.25-1.25" transform="translate(0 0)"/><path class="cls-3" d="M71.25,72.5a1.25,1.25,0,0,0,1.25-1.25v-7.5a1.25,1.25,0,0,0-2.5,0V70H52.5V51.25a1.25,1.25,0,0,0-2.5,0V55H32.5V51.25a1.25,1.25,0,0,0-2.5,0v20a1.25,1.25,0,0,0,1.25,1.25ZM50,70H42.5V57.5H50ZM40,70H32.5V57.5H40Z" transform="translate(0 0)"/><path class="cls-3" d="M31.25,47.5h10a1.25,1.25,0,0,0,0-2.5H32.5V22.5H50V45H46.25a1.25,1.25,0,0,0,0,2.5h15a1.25,1.25,0,0,0,0-2.5H52.5V22.5H70v6.25a1.25,1.25,0,0,0,2.5,0v-7.5A1.25,1.25,0,0,0,71.25,20h-40A1.25,1.25,0,0,0,30,21.25v25a1.25,1.25,0,0,0,1.25,1.25" transform="translate(0 0)"/></g></g></g></svg>