<svg xmlns="http://www.w3.org/2000/svg" xmlns:xlink="http://www.w3.org/1999/xlink" viewBox="0 0 102.5 102.5"><defs><style>.cls-1{fill:none;}.cls-2{clip-path:url(#clip-path);}.cls-3{fill:#414141;}</style><clipPath id="clip-path"><rect class="cls-1" width="102.5" height="102.5"/></clipPath></defs><title>work-3</title><g id="Слой_2" data-name="Слой 2"><g id="Слой_1-2" data-name="Слой 1"><g class="cls-2"><path class="cls-3" d="M102.48,26,97.88,3a3.78,3.78,0,0,0-3.7-3H78.32a3.78,3.78,0,0,0-3.7,3L70,26a1.25,1.25,0,0,0,1.23,1.49H77.5v8.75a1.25,1.25,0,0,0,2.5,0V27.5h5V95H81.25a1.22,1.22,0,0,0-.88.37l-5,5a1.24,1.24,0,0,0,1.76,1.76l4.64-4.63h9l4.64,4.63a1.24,1.24,0,0,0,1.76-1.76l-5-5a1.22,1.22,0,0,0-.88-.37H87.5V27.5h13.75A1.25,1.25,0,0,0,102.48,26M72.77,25l4.3-21.48a1.28,1.28,0,0,1,1.25-1H94.18a1.28,1.28,0,0,1,1.25,1L99.73,25Z"/><path class="cls-3" d="M61.25,40h-60A1.25,1.25,0,0,0,0,41.25v60a1.25,1.25,0,0,0,1.25,1.25h60a1.25,1.25,0,0,0,1.25-1.25v-60A1.25,1.25,0,0,0,61.25,40M60,55H2.5V42.5H60ZM2.5,57.5H60V70H2.5ZM60,85H2.5V72.5H60ZM2.5,87.5H60V100H2.5Z"/><path class="cls-3" d="M36.25,92.5h-10a1.25,1.25,0,0,0,0,2.5h10a1.25,1.25,0,0,0,0-2.5"/><path class="cls-3" d="M26.25,80h10a1.25,1.25,0,0,0,0-2.5h-10a1.25,1.25,0,0,0,0,2.5"/><path class="cls-3" d="M36.25,62.5h-10a1.25,1.25,0,0,0,0,2.5h10a1.25,1.25,0,0,0,0-2.5"/><path class="cls-3" d="M26.25,50h10a1.25,1.25,0,0,0,0-2.5h-10a1.25,1.25,0,0,0,0,2.5"/></g></g></g></svg>