<svg xmlns="http://www.w3.org/2000/svg" xmlns:xlink="http://www.w3.org/1999/xlink" viewBox="0 0 102.5 102.5"><defs><style>.cls-1{fill:none;}.cls-2{clip-path:url(#clip-path);}.cls-3{fill:#414141;}</style><clipPath id="clip-path"><rect class="cls-1" width="102.5" height="102.5"/></clipPath></defs><title>work-2</title><g id="Слой_2" data-name="Слой 2"><g id="Слой_1-2" data-name="Слой 1"><g class="cls-2"><path class="cls-3" d="M96.25,0h-90A6.25,6.25,0,0,0,0,6.25v70A6.25,6.25,0,0,0,6.25,82.5H40V95H31.25A1.25,1.25,0,0,0,30,96.25v5a1.25,1.25,0,0,0,1.25,1.25h40a1.25,1.25,0,0,0,1.25-1.25v-5A1.25,1.25,0,0,0,71.25,95H62.5V82.5H96.25a6.25,6.25,0,0,0,6.25-6.25v-70A6.25,6.25,0,0,0,96.25,0M70,100H32.5V97.5H70ZM60,95H42.5V82.5H60Zm40-18.75A3.76,3.76,0,0,1,96.25,80h-90A3.75,3.75,0,0,1,2.5,76.25v-70A3.75,3.75,0,0,1,6.25,2.5h90A3.76,3.76,0,0,1,100,6.25Z"/><path class="cls-3" d="M96.25,5h-90A1.25,1.25,0,0,0,5,6.25v55A1.25,1.25,0,0,0,6.25,62.5h90a1.25,1.25,0,0,0,1.25-1.25v-55A1.25,1.25,0,0,0,96.25,5M95,60H7.5V7.5H95Z"/><path class="cls-3" d="M43.75,15H50v3.75a1.25,1.25,0,0,0,2.5,0V15h6.25a1.25,1.25,0,0,0,0-2.5h-15a1.25,1.25,0,0,0,0,2.5"/><path class="cls-3" d="M68.75,15H75V32.5H56.25a1.25,1.25,0,0,0,0,2.5H60V52.5H56.25a1.25,1.25,0,0,0,0,2.5h20a1.25,1.25,0,0,0,1.25-1.25v-40a1.25,1.25,0,0,0-1.25-1.25h-7.5a1.25,1.25,0,0,0,0,2.5M75,42.5H62.5V35H75ZM62.5,45H75v7.5H62.5Z"/><path class="cls-3" d="M26.25,55h25a1.25,1.25,0,0,0,1.25-1.25v-10a1.25,1.25,0,0,0-2.5,0V52.5H27.5V35H50v3.75a1.25,1.25,0,0,0,2.5,0v-15a1.25,1.25,0,0,0-2.5,0V32.5H27.5V15h6.25a1.25,1.25,0,0,0,0-2.5h-7.5A1.25,1.25,0,0,0,25,13.75v40A1.25,1.25,0,0,0,26.25,55"/></g></g></g></svg>