<svg xmlns="http://www.w3.org/2000/svg" xmlns:xlink="http://www.w3.org/1999/xlink" viewBox="0 0 102.5 102.5"><defs><style>.cls-1{fill:none;}.cls-2{clip-path:url(#clip-path);}.cls-3{fill:#414141;}</style><clipPath id="clip-path"><rect class="cls-1" width="102.5" height="102.5"/></clipPath></defs><title>work-1</title><g id="Слой_2" data-name="Слой 2"><g id="Слой_1-2" data-name="Слой 1"><g class="cls-2"><path class="cls-3" d="M101.25,30h-20A1.25,1.25,0,0,0,80,31.25v2.69L31.94,55.66a1.26,1.26,0,0,0-.63,1.65l8.25,18.25a1.25,1.25,0,0,0,1.65.63l18.86-8.5L48.56,84.9a1.25,1.25,0,0,0,.35,1.74l16.65,11.1a1.25,1.25,0,0,0,1.73-.35L80,78.37v22.88a1.25,1.25,0,0,0,1.25,1.25h20a1.25,1.25,0,0,0,1.25-1.25v-70A1.25,1.25,0,0,0,101.25,30M100,55H82.5V32.5H100ZM80,42.37v7.89l-3.64-2.44Zm-13,15L61.43,45.08l11.39-5.15,2.34,5.17Zm8-7.47,5,3.37v15l-12-8ZM82.5,72.5H100V85H82.5Zm0-15H100V70H82.5ZM80,37.87l-3.2,4.79L75.1,38.9,80,36.68ZM34.1,57.42l11.39-5.14,7.21,16L41.33,73.4ZM55,67.24l-7.21-16L59.15,46.1l6.17,13.72-2.63,4ZM65.9,95,51.34,85.25l6.95-10.4,14.56,9.73ZM74.24,82.5,59.68,72.77l6.94-10.38L80,71.32v2.55Zm8.26,5H100V100H82.5Z"/><path class="cls-3" d="M91.25,47.5A6.25,6.25,0,1,0,85,41.25a6.26,6.26,0,0,0,6.25,6.25m0-10a3.75,3.75,0,1,1-3.75,3.75,3.75,3.75,0,0,1,3.75-3.75"/><path class="cls-3" d="M66.15,100H12.5V48.87L51.25,10.08,74.12,33a1.25,1.25,0,0,0,1.76-1.77L52.13,7.43a1.24,1.24,0,0,0-1.76,0L4.8,53,3,51.26,51.25,3,75.37,27.13a1.25,1.25,0,0,0,1.76-1.77l-25-25a1.24,1.24,0,0,0-1.76,0l-50,50a1.25,1.25,0,0,0,0,1.77l3.55,3.55a1.27,1.27,0,0,0,1.76,0L10,51.37v49.88a1.25,1.25,0,0,0,1.25,1.25h54.9a1.25,1.25,0,0,0,0-2.5"/></g></g></g></svg>