<svg xmlns="http://www.w3.org/2000/svg" width="17" height="20" viewBox="0 0 17 20"><g><g><path fill="#383a40" d="M16.839 16.603a.494.494 0 0 1-.962-.228c.275-1.15.131-2.159-.386-2.7-.344-.36-.834-.482-1.457-.366-1.236.233-2.024 1.298-2.937 2.531-.764 1.033-1.63 2.203-2.901 2.987C6.96 19.59 5.549 20 4.183 20c-.129 0-.257-.003-.385-.011-1.485-.085-2.71-.676-3.36-1.62-.82-1.192-.349-2.433.29-3.28l-.5-.666a1.152 1.152 0 0 1 .22-1.599l3.227-2.48a1.16 1.16 0 0 1 1.627.222l1.19 1.586c.949-.426 2.034-1.15 3.21-2.34 1.19-1.203 1.903-2.308 2.321-3.261l-1.589-1.221a1.152 1.152 0 0 1-.219-1.6L12.67.46a1.16 1.16 0 0 1 .924-.46c.256 0 .5.082.703.239l1.857 1.427.006.006a.591.591 0 0 1 .04.037c.012.012.024.023.034.035l.019.027c.013.019.026.038.036.057l.007.015a.501.501 0 0 1 .03.08l.001.001c.047.173 1.084 4.284-4.54 9.975-4.042 4.09-7.29 4.7-8.867 4.7-.615 0-.968-.093-1.007-.104H1.91a.55.55 0 0 1-.075-.03l-.02-.01a.522.522 0 0 1-.053-.033l-.032-.023-.032-.032-.038-.04-.007-.009-.3-.4c-.334.517-.564 1.215-.098 1.893.944 1.37 3.89 1.738 6.422.177 1.109-.683 1.88-1.726 2.626-2.733.993-1.342 1.93-2.61 3.55-2.915.945-.177 1.781.055 2.355.655.749.784.985 2.133.632 3.608z"/></g></g></svg>