<svg xmlns="http://www.w3.org/2000/svg" width="18" height="23" viewBox="0 0 18 23"><g><g><path fill="#383a40" d="M9.056 13.77c-2.012 0-3.713-1.738-4.574-3.846-.638-.101-1.244-.599-1.34-1.767-.092-1.117.277-1.573.747-1.754.077-2.048.572-3.313 1.3-4.09.453-.594 1.214-1.169 1.703-1.469 3.847-2.359 5.817 1.003 5.817 1.003s2.639.767 1.682 4.685c.344.24.578.711.503 1.625-.091 1.118-.65 1.622-1.257 1.752-.86 2.115-2.563 3.86-4.58 3.86zm4.2-6.79v-.084c-.276-.975-.815-2.29-1.855-3.331-1.095 1.19-3.108 2.561-6.511 2.412-.022.31-.034.644-.034 1.004 0 2.63 1.874 5.806 4.2 5.806 2.327 0 4.201-3.176 4.2-5.807zM8.36 17.58l-.945 5.416h-6.2c-.66 0-1.213-.499-1.213-1.122v-3.171c0-2.415 1.748-4.52 4.228-5.106l1.464-.345L8.1 15.255c.026.022.053.043.08.062a.655.655 0 0 0-.187.325l-.27 1.12c-.1.417.212.811.636.817zM18 18.702v3.171c0 .624-.503 1.122-1.164 1.122h-6.2l-.944-5.416a.66.66 0 0 0 .635-.817l-.27-1.121a.654.654 0 0 0-.188-.325l.08-.062 2.404-2.003 1.444.345c2.48.586 4.204 2.69 4.203 5.106z"/></g></g></svg>